<?xml version="1.0" encoding="UTF-8" standalone="no"?>
<svg width="12px" height="12px" viewBox="0 0 12 12" version="1.1" xmlns="http://www.w3.org/2000/svg" xmlns:xlink="http://www.w3.org/1999/xlink">
    <!-- Generator: Sketch 44.1 (41455) - http://www.bohemiancoding.com/sketch -->
    <title>thumb-up</title>
    <desc>Created with Sketch.</desc>
    <defs></defs>
    <g id="Page-1" stroke="none" stroke-width="1" fill="none" fill-rule="evenodd">
        <g id="crop_top" transform="translate(-23.000000, -122.000000)" fill="#4A90E2">
            <g id="thumb-up" transform="translate(23.000000, 122.000000)">
                <path d="M0,12 L2.18181818,12 L2.18181818,4.8 L0,4.8 L0,12 L0,12 Z M12,5.4 C12,4.74 11.5090909,4.2 10.9090909,4.2 L7.47272727,4.2 L8.01818182,1.44 L8.01818182,1.26 C8.01818182,1.02 7.90909091,0.78 7.8,0.6 L7.2,0 L3.6,3.96 C3.38181818,4.14 3.27272727,4.44 3.27272727,4.8 L3.27272727,10.8 C3.27272727,11.46 3.76363636,12 4.36363636,12 L9.27272727,12 C9.70909091,12 10.0909091,11.7 10.2545455,11.28 L11.8909091,7.02 C11.9454545,6.9 11.9454545,6.72 11.9454545,6.6 L11.9454545,5.4 L12,5.4 C12,5.46 12,5.4 12,5.4 L12,5.4 Z" id="Shape"></path>
            </g>
        </g>
    </g>
</svg>