<?xml version="1.0" encoding="UTF-8" standalone="no"?>
<svg width="14px" height="20px" viewBox="0 0 14 20" version="1.1" xmlns="http://www.w3.org/2000/svg" xmlns:xlink="http://www.w3.org/1999/xlink">
    <!-- Generator: Sketch 44.1 (41455) - http://www.bohemiancoding.com/sketch -->
    <title>place</title>
    <desc>Created with Sketch.</desc>
    <defs></defs>
    <g id="Page-1" stroke="none" stroke-width="1" fill="none" fill-rule="evenodd">
        <g id="Group" transform="translate(0.000000, -1.000000)" fill="#878787">
            <g id="place" transform="translate(0.000000, 1.000000)">
                <path d="M7,0 C3.1,0 0,3.1 0,7 C0,12.2 7,20 7,20 C7,20 14,12.2 14,7 C14,3.1 10.9,0 7,0 L7,0 Z M7,9.5 C5.6,9.5 4.5,8.4 4.5,7 C4.5,5.6 5.6,4.5 7,4.5 C8.4,4.5 9.5,5.6 9.5,7 C9.5,8.4 8.4,9.5 7,9.5 L7,9.5 Z" id="Shape"></path>
            </g>
        </g>
    </g>
</svg>