<?xml version="1.0" encoding="UTF-8" standalone="no"?>
<svg width="17px" height="17px" viewBox="0 0 17 17" version="1.1" xmlns="http://www.w3.org/2000/svg" xmlns:xlink="http://www.w3.org/1999/xlink">
    <!-- Generator: Sketch 44.1 (41455) - http://www.bohemiancoding.com/sketch -->
    <title>shopping-cart</title>
    <desc>Created with Sketch.</desc>
    <defs></defs>
    <g id="Page-1" stroke="none" stroke-width="1" fill="none" fill-rule="evenodd">
        <g id="ryan_henley_tee" transform="translate(-144.000000, -229.000000)" fill="#878787">
            <g id="shopping-cart" transform="translate(144.000000, 229.000000)">
                <path d="M5.1,13.6 C4.165,13.6 3.4,14.365 3.4,15.3 C3.4,16.235 4.165,17 5.1,17 C6.035,17 6.8,16.235 6.8,15.3 C6.8,14.365 6.035,13.6 5.1,13.6 L5.1,13.6 Z M0,0 L0,1.7 L1.7,1.7 L4.76,8.16 L3.57,10.2 C3.485,10.455 3.4,10.795 3.4,11.05 C3.4,11.985 4.165,12.75 5.1,12.75 L15.3,12.75 L15.3,11.05 L5.44,11.05 C5.355,11.05 5.27,10.965 5.27,10.88 L5.27,10.795 L6.035,9.35 L12.325,9.35 C13.005,9.35 13.515,9.01 13.77,8.5 L16.83,2.975 C17,2.805 17,2.72 17,2.55 C17,2.04 16.66,1.7 16.15,1.7 L3.57,1.7 L2.805,0 L0,0 L0,0 Z M13.6,13.6 C12.665,13.6 11.9,14.365 11.9,15.3 C11.9,16.235 12.665,17 13.6,17 C14.535,17 15.3,16.235 15.3,15.3 C15.3,14.365 14.535,13.6 13.6,13.6 L13.6,13.6 Z" id="Shape"></path>
            </g>
        </g>
    </g>
</svg>