<?xml version="1.0" encoding="UTF-8" standalone="no"?>
<svg width="12px" height="12px" viewBox="0 0 12 12" version="1.1" xmlns="http://www.w3.org/2000/svg" xmlns:xlink="http://www.w3.org/1999/xlink">
    <!-- Generator: Sketch 44.1 (41455) - http://www.bohemiancoding.com/sketch -->
    <title>thumb-down copy 2</title>
    <desc>Created with Sketch.</desc>
    <defs></defs>
    <g id="Page-1" stroke="none" stroke-width="1" fill="none" fill-rule="evenodd" fill-opacity="0.6">
        <g id="bag" transform="translate(-119.000000, -123.000000)" fill="#8B572A">
            <g id="thumb-down-copy-2" transform="translate(119.000000, 123.000000)">
                <path d="M7.63636364,0 L2.72727273,0 C2.29090909,0 1.90909091,0.3 1.74545455,0.72 L0.109090909,4.98 C0.0545454545,5.1 0,5.22 0,5.4 L0,6.54 L0,6.6 C0,7.26 0.490909091,7.8 1.09090909,7.8 L4.52727273,7.8 L3.98181818,10.56 L3.98181818,10.74 C3.98181818,10.98 4.09090909,11.22 4.2,11.4 L4.8,12 L8.4,8.04 C8.61818182,7.8 8.72727273,7.5 8.72727273,7.2 L8.72727273,1.2 C8.72727273,0.54 8.23636364,0 7.63636364,0 L7.63636364,0 Z M9.81818182,0 L9.81818182,7.2 L12,7.2 L12,0 L9.81818182,0 L9.81818182,0 Z" id="Shape"></path>
            </g>
        </g>
    </g>
</svg>