<?xml version="1.0" encoding="UTF-8" standalone="no"?>
<svg width="20px" height="19px" viewBox="0 0 20 19" version="1.1" xmlns="http://www.w3.org/2000/svg" xmlns:xlink="http://www.w3.org/1999/xlink">
    <!-- Generator: Sketch 44.1 (41455) - http://www.bohemiancoding.com/sketch -->
    <title>favorite-outline</title>
    <desc>Created with Sketch.</desc>
    <defs></defs>
    <g id="Page-1" stroke="none" stroke-width="1" fill="none" fill-rule="evenodd">
        <g id="favorite-outline" fill="#878787">
            <path d="M14.5,0 C12.8,0 11.1,0.8 10,2.1 C8.9,0.8 7.2,0 5.5,0 C2.4,0 0,2.4 0,5.5 C0,9.3 3.4,12.4 8.6,17 L10,18.3 L11.4,17 C16.5,12.3 20,9.2 20,5.5 C20,2.4 17.6,0 14.5,0 L14.5,0 Z M10.1,15.6 L10,15.6 L9.9,15.5 C5.1,11.2 2,8.4 2,5.5 C2,3.5 3.5,2 5.5,2 C7,2 8.5,3 9.1,4.4 L11,4.4 C11.5,3 13,2 14.5,2 C16.5,2 18,3.5 18,5.5 C18,8.4 14.9,11.2 10.1,15.6 L10.1,15.6 Z" id="Shape"></path>
        </g>
    </g>
</svg>